<svg width="682" height="542" viewBox="0 0 682 542" fill="none" xmlns="http://www.w3.org/2000/svg">
<path fill-rule="evenodd" clip-rule="evenodd" d="M129.421 442.024C113.058 458.564 81.9787 455.617 81.9999 481.18C82.0175 503.852 107.933 514.453 126.38 521.071C187.057 542.829 236.358 550.163 295.433 528.115C336.236 512.895 551.786 389.523 581.641 370.047C622.772 343.205 531.123 317.78 478.827 309.257C402.292 296.777 129.421 442.024 129.421 442.024" fill="#FA7564"/>
<path fill-rule="evenodd" clip-rule="evenodd" d="M448.106 202.695C475.369 168.03 464.893 137.018 460.142 98.9439C457.267 75.9142 454.632 34.759 429.119 19.8114C405.366 5.88739 365.779 6.58704 343.416 16.8026C278.56 46.4428 171.793 111.634 118.686 154.595C72.3724 192.056 79.5081 239.725 89.0001 287.925C93.381 310.162 118.347 350.073 150.191 353.454C185.249 357.179 417.384 241.751 448.106 202.695" fill="#02ECF1"/>
<path fill-rule="evenodd" clip-rule="evenodd" d="M454 261.553H502V200.918H454V261.553Z" fill="#02ECF1"/>
<path fill-rule="evenodd" clip-rule="evenodd" d="M464.025 207.97L464.796 207.649C465.078 207.536 465.326 207.444 465.552 207.365C466.132 207.814 466.038 207.877 466.191 208.404L459.873 211.23V211.246L462.599 212.463C463.959 213.075 465.152 213.616 466.183 214.058C466.03 214.605 466.155 214.648 465.544 215.118C465.203 215.005 464.897 214.877 464.628 214.755C462.825 213.951 460.498 212.925 457.625 211.63V211.21C457.625 211.16 457.72 211.095 457.924 211.01C457.844 211.038 457.771 211.06 457.699 211.088V210.996C457.699 210.911 457.713 210.819 457.822 210.754L464.025 207.97Z" fill="white"/>
<path fill-rule="evenodd" clip-rule="evenodd" d="M464.025 248.278L464.796 247.957C465.078 247.844 465.326 247.752 465.552 247.673C466.132 248.122 466.038 248.185 466.191 248.712L459.873 251.538V251.554L462.599 252.771C463.959 253.383 465.152 253.924 466.183 254.366C466.03 254.913 466.155 254.956 465.544 255.426C465.203 255.312 464.897 255.184 464.628 255.062C462.825 254.258 460.498 253.234 457.625 251.938V251.517C457.625 251.468 457.72 251.404 457.924 251.318C457.844 251.346 457.771 251.368 457.699 251.396V251.305C457.699 251.219 457.713 251.126 457.822 251.061L464.025 248.278Z" fill="white"/>
<path fill-rule="evenodd" clip-rule="evenodd" d="M472.723 212.256H497.293V209.724H472.723V212.256Z" fill="white"/>
<path fill-rule="evenodd" clip-rule="evenodd" d="M478.21 221.12H497.293V218.587H478.21V221.12Z" fill="white"/>
<path fill-rule="evenodd" clip-rule="evenodd" d="M486.832 228.717H497.293V226.185H486.832V228.717Z" fill="white"/>
<path fill-rule="evenodd" clip-rule="evenodd" d="M472.723 252.565H497.293V250.032H472.723V252.565Z" fill="white"/>
<path fill-rule="evenodd" clip-rule="evenodd" d="M478.21 243.702H497.293V241.169H478.21V243.702Z" fill="white"/>
<path fill-rule="evenodd" clip-rule="evenodd" d="M486.832 236.104H497.293V233.571H486.832V236.104Z" fill="white"/>
<path fill-rule="evenodd" clip-rule="evenodd" d="M469.597 247.136L467.038 256.16L468.876 256.304L471.434 247.281L469.597 247.136Z" fill="white"/>
<path fill-rule="evenodd" clip-rule="evenodd" d="M486.173 268.057L487.138 276.083L492.912 290.76L487.632 292.35L483.571 277.042L483.04 268.411L486.173 268.057Z" fill="#250F8A"/>
<path fill-rule="evenodd" clip-rule="evenodd" d="M498.512 306.868L495.933 332.411L496.792 354.865H487.906L487.428 353.194L493.519 352.398L490.27 332.516L487.339 307.79L498.512 306.868Z" fill="white"/>
<path fill-rule="evenodd" clip-rule="evenodd" d="M501.447 306.582L503.468 328.34L517.072 346.036L515.448 354.386H511.387L513.823 352.597L514.23 347.229L501.235 332.914L489.458 307.266L501.447 306.582Z" fill="#E7EEFA"/>
<path fill-rule="evenodd" clip-rule="evenodd" d="M477.013 271.479L479.85 272.399C481.004 275.671 482.926 278.632 485.463 281.046L490.773 286.098L497.31 290.421L502.166 308.06L486.974 309.464L486.472 290.027L480.832 283.122C478.512 280.284 476.943 276.93 476.263 273.356L477.013 271.479Z" fill="#250F8A"/>
<path fill-rule="evenodd" clip-rule="evenodd" d="M480.147 273.368L476.411 274.666L473.999 262.272L474.724 261.22L480.147 273.368Z" fill="#FFD0D4"/>
<path fill-rule="evenodd" clip-rule="evenodd" d="M480.991 273.132L476.29 275.375C476.29 275.375 475.326 274.548 475.445 274.077C475.566 273.604 475.807 273.25 476.169 273.014C476.531 272.778 480.148 271.48 480.148 271.48L480.991 273.132Z" fill="#472BC7"/>
<path fill-rule="evenodd" clip-rule="evenodd" d="M483.04 268.411L482.8 261.801H485.451L486.173 268.057L483.04 268.411Z" fill="#FFD0D4"/>
<path fill-rule="evenodd" clip-rule="evenodd" d="M476.982 261.673C476.946 261.649 475.283 260.754 475.248 260.639C475.213 260.522 474.037 257.743 474.037 257.743L472.345 257.977L472.827 262.541L475.158 263.091L476.982 261.673Z" fill="#FFD0D4"/>
<path fill-rule="evenodd" clip-rule="evenodd" d="M501.366 282.672C500.233 285.214 496.564 287.829 493.967 286.72C491.371 285.61 490.833 281.198 491.965 278.655C493.098 276.113 496.12 274.951 498.716 276.061C501.312 277.17 502.499 280.13 501.366 282.672" fill="#FFD0D4"/>
<path fill-rule="evenodd" clip-rule="evenodd" d="M493.626 277.105C493.176 276.792 492.71 276.503 492.228 276.24C491.881 276.051 491.337 275.935 491.183 276.292C491.108 276.47 491.187 276.67 491.266 276.846C491.528 277.433 491.817 278.051 492.354 278.418C492.806 278.727 493.409 278.815 493.934 278.647C494.408 278.497 494.871 278.144 494.92 277.665C494.444 277.575 494.024 277.381 493.626 277.105" fill="#FFD0D4"/>
<path fill-rule="evenodd" clip-rule="evenodd" d="M494.544 286.898C497.079 287.448 500.315 285.031 501.366 282.673C502.498 280.129 501.313 277.17 498.717 276.061C498.56 275.993 498.398 275.961 498.239 275.911C497.942 276.219 497.702 276.585 497.595 276.933C497.177 278.291 497.494 279.895 498.371 281.024C498.371 281.024 495.434 286.445 494.544 286.898" fill="black"/>
<path fill-rule="evenodd" clip-rule="evenodd" d="M498.713 281.837C499.091 282.03 499.382 282.363 499.563 282.739C500.154 283.95 498.753 285.139 497.558 284.982C497.172 284.932 496.806 284.779 496.469 284.587C496.179 284.42 495.895 284.205 495.765 283.9C495.639 283.604 495.68 283.259 495.816 282.969C495.952 282.679 496.178 282.437 496.421 282.225C496.977 281.741 498.03 281.489 498.713 281.837" fill="#FFD0D4"/>
<path fill-rule="evenodd" clip-rule="evenodd" d="M184.964 419.65H442.218V154.824H184.964V419.65Z" fill="#FFDA4F"/>
<path fill-rule="evenodd" clip-rule="evenodd" d="M178.367 419.65H435.621V154.824H178.367V419.65Z" fill="white"/>
<path fill-rule="evenodd" clip-rule="evenodd" d="M178.367 175.451H435.621V154.824H178.367V175.451Z" fill="#FFCA00"/>
<path fill-rule="evenodd" clip-rule="evenodd" d="M257.079 357.124C256.746 357.036 256.412 356.992 256.081 356.976C256.009 356.974 255.938 356.984 255.867 356.984C255.599 356.984 255.333 357.002 255.073 357.047C255.022 357.055 254.974 357.071 254.922 357.081C254.635 357.141 254.358 357.226 254.089 357.338C254.071 357.346 254.053 357.353 254.034 357.362C252.812 357.889 251.826 358.91 251.444 360.27C250.777 362.662 251.832 366.498 254.274 367.153C255.408 367.459 256.641 367.017 257.705 366.224C257.705 366.224 257.706 366.222 257.707 366.222C258.111 365.92 258.488 365.57 258.828 365.187C258.84 365.172 258.852 365.158 258.866 365.143C259.012 364.974 259.152 364.8 259.284 364.621C259.303 364.594 259.324 364.567 259.343 364.54C259.48 364.349 259.607 364.153 259.721 363.955C259.737 363.929 259.748 363.904 259.764 363.878C259.858 363.71 259.942 363.541 260.017 363.372C260.04 363.32 260.062 363.27 260.084 363.22C260.165 363.026 260.236 362.833 260.29 362.642C260.457 362.044 260.493 361.44 260.414 360.863C260.177 359.128 258.911 357.616 257.079 357.124" fill="#E5FDFD"/>
<path fill-rule="evenodd" clip-rule="evenodd" d="M246.396 342.024H267.056V342.026C267.056 342.898 267.606 343.643 268.384 343.952L259.622 368.369L250.774 367.675L245.297 343.213C245.81 342.978 246.206 342.55 246.396 342.024M242.809 342.695L242.632 342.72L245.818 369.409L248.296 394.365L250.4 419.65H254.087L255.061 394.083L257.475 393.983L259.027 419.65H263.266L264.932 393.672L264.578 370.449L271.304 343.067L271.031 343.029C271.199 342.73 271.304 342.393 271.304 342.027V342.024H286.984V297.012H227.448V342.024H242.408C242.498 342.275 242.634 342.499 242.809 342.695" fill="#E5FDFD"/>
<path fill-rule="evenodd" clip-rule="evenodd" d="M353.127 341.003L356.107 358.564H349.79L352.77 341.003H353.127ZM381.236 341.003L378.256 358.564H357.342L354.362 341.003H381.236ZM382.829 341.003L385.809 358.564H379.491L382.471 341.003H382.829ZM387.971 371.289H377.33L379.289 359.757H386.012L387.971 371.289ZM390.129 384.013H375.172L377.128 372.482H388.173L390.129 384.013ZM392.288 396.737H373.012L374.969 385.206H390.332L392.288 396.737ZM394.449 409.461H370.852L372.808 397.929H392.492L394.449 409.461ZM369.616 409.461H365.982L364.024 397.929H371.574L369.616 409.461ZM341.15 409.461L343.107 397.929H362.79L364.748 409.461H341.15ZM345.267 385.206H360.63L362.588 396.737H343.309L345.267 385.206ZM347.427 372.482H358.47L360.427 384.013H345.47L347.427 372.482ZM359.502 371.289L357.544 359.757H378.054L376.096 371.289H359.502ZM373.734 385.206L371.777 396.737H363.822L361.866 385.206H373.734ZM361.662 384.013L359.704 372.482H375.893L373.936 384.013H361.662ZM349.587 359.757H356.309L358.268 371.289H347.629L349.587 359.757ZM338.185 419.65H339.42L340.947 410.654H364.95L366.477 419.65H367.712L366.186 410.654H369.414L367.886 419.65H369.122L370.649 410.654H394.652L396.179 419.65H397.413L384.065 341.003H386.634V337.425H350.085V341.003H351.535L338.185 419.65Z" fill="black"/>
<path fill-rule="evenodd" clip-rule="evenodd" d="M525.814 257.131H574.121V137.096H525.814V257.131Z" fill="#FFCA00"/>
<path fill-rule="evenodd" clip-rule="evenodd" d="M537.187 143.137L537.959 142.816C538.242 142.703 538.489 142.611 538.715 142.532C539.296 142.981 539.201 143.044 539.354 143.571L533.036 146.397V146.413L535.762 147.63C537.122 148.242 538.315 148.783 539.347 149.225C539.193 149.772 539.318 149.815 538.707 150.285C538.366 150.171 538.06 150.043 537.791 149.922C535.988 149.117 533.661 148.092 530.789 146.797V146.377C530.789 146.327 530.884 146.262 531.087 146.178C531.008 146.205 530.934 146.227 530.863 146.255V146.163C530.863 146.078 530.876 145.985 530.986 145.92L537.187 143.137Z" fill="white"/>
<path fill-rule="evenodd" clip-rule="evenodd" d="M537.187 183.445L537.959 183.124C538.242 183.011 538.489 182.918 538.715 182.84C539.296 183.289 539.201 183.352 539.354 183.879L533.036 186.705V186.72L535.762 187.938C537.122 188.55 538.315 189.091 539.347 189.533C539.193 190.08 539.318 190.123 538.707 190.593C538.366 190.479 538.06 190.351 537.791 190.229C535.988 189.425 533.661 188.401 530.789 187.105V186.684C530.789 186.635 530.884 186.571 531.087 186.485C531.008 186.513 530.934 186.535 530.863 186.563V186.472C530.863 186.386 530.876 186.293 530.986 186.228L537.187 183.445Z" fill="white"/>
<path fill-rule="evenodd" clip-rule="evenodd" d="M545.887 147.423H570.457V144.891H545.887V147.423Z" fill="white"/>
<path fill-rule="evenodd" clip-rule="evenodd" d="M551.374 156.287H570.457V153.754H551.374V156.287Z" fill="white"/>
<path fill-rule="evenodd" clip-rule="evenodd" d="M559.995 163.885H570.457V161.352H559.995V163.885Z" fill="white"/>
<path fill-rule="evenodd" clip-rule="evenodd" d="M545.887 187.732H570.457V185.199H545.887V187.732Z" fill="white"/>
<path fill-rule="evenodd" clip-rule="evenodd" d="M551.374 178.868H570.457V176.335H551.374V178.868Z" fill="white"/>
<path fill-rule="evenodd" clip-rule="evenodd" d="M559.995 171.271H570.457V168.739H559.995V171.271Z" fill="white"/>
<path fill-rule="evenodd" clip-rule="evenodd" d="M542.76 182.303L540.201 191.327L542.04 191.471L544.598 182.448L542.76 182.303Z" fill="white"/>
<path fill-rule="evenodd" clip-rule="evenodd" d="M537.187 197.911L537.959 197.59C538.242 197.476 538.489 197.385 538.715 197.306C539.296 197.754 539.201 197.818 539.354 198.345L533.036 201.171V201.186L535.762 202.403C537.122 203.015 538.315 203.557 539.347 203.998C539.193 204.546 539.318 204.589 538.707 205.059C538.366 204.944 538.06 204.817 537.791 204.696C535.988 203.891 533.661 202.866 530.789 201.571V201.15C530.789 201.101 530.884 201.036 531.087 200.95C531.008 200.979 530.934 201 530.863 201.029V200.937C530.863 200.851 530.876 200.758 530.986 200.694L537.187 197.911Z" fill="white"/>
<path fill-rule="evenodd" clip-rule="evenodd" d="M537.187 238.219L537.959 237.898C538.242 237.785 538.489 237.692 538.715 237.614C539.296 238.063 539.201 238.126 539.354 238.653L533.036 241.479V241.493L535.762 242.711C537.122 243.323 538.315 243.865 539.347 244.306C539.193 244.854 539.318 244.897 538.707 245.367C538.366 245.252 538.06 245.125 537.791 245.003C535.988 244.199 533.661 243.174 530.789 241.878V241.458C530.789 241.409 530.884 241.344 531.087 241.258C531.008 241.287 530.934 241.308 530.863 241.337V241.245C530.863 241.159 530.876 241.066 530.986 241.002L537.187 238.219Z" fill="white"/>
<path fill-rule="evenodd" clip-rule="evenodd" d="M545.887 202.198H570.457V199.665H545.887V202.198Z" fill="white"/>
<path fill-rule="evenodd" clip-rule="evenodd" d="M551.374 211.061H570.457V208.529H551.374V211.061Z" fill="white"/>
<path fill-rule="evenodd" clip-rule="evenodd" d="M559.995 218.657H570.457V216.125H559.995V218.657Z" fill="white"/>
<path fill-rule="evenodd" clip-rule="evenodd" d="M545.887 242.505H570.457V239.972H545.887V242.505Z" fill="white"/>
<path fill-rule="evenodd" clip-rule="evenodd" d="M551.374 233.642H570.457V231.109H551.374V233.642Z" fill="white"/>
<path fill-rule="evenodd" clip-rule="evenodd" d="M559.995 226.044H570.457V223.511H559.995V226.044Z" fill="white"/>
<path fill-rule="evenodd" clip-rule="evenodd" d="M542.76 237.076L540.201 246.1L542.04 246.245L544.598 237.221L542.76 237.076Z" fill="white"/>
<path fill-rule="evenodd" clip-rule="evenodd" d="M209.172 353.953H268.709V308.941H209.172V353.953Z" fill="#02ECF1"/>
<path fill-rule="evenodd" clip-rule="evenodd" d="M369.405 434.305L353.229 339.004L354.43 338.808L370.606 434.109L369.405 434.305Z" fill="black"/>
<path fill-rule="evenodd" clip-rule="evenodd" d="M339.703 434.305L323.526 339.004L324.727 338.808L340.905 434.109L339.703 434.305Z" fill="black"/>
<path fill-rule="evenodd" clip-rule="evenodd" d="M327.573 359.758H357.54V358.564H327.573V359.758Z" fill="black"/>
<path fill-rule="evenodd" clip-rule="evenodd" d="M329.696 372.483H359.664V371.289H329.696V372.483Z" fill="black"/>
<path fill-rule="evenodd" clip-rule="evenodd" d="M331.818 385.207H361.785V384.013H331.818V385.207Z" fill="black"/>
<path fill-rule="evenodd" clip-rule="evenodd" d="M333.939 397.93H363.906V396.737H333.939V397.93Z" fill="black"/>
<path fill-rule="evenodd" clip-rule="evenodd" d="M336.06 410.655H366.027V409.462H336.06V410.655Z" fill="black"/>
<path fill-rule="evenodd" clip-rule="evenodd" d="M338.181 423.379H368.149V422.185H338.181V423.379Z" fill="black"/>
<path fill-rule="evenodd" clip-rule="evenodd" d="M307.671 434.305L306.47 434.109L322.646 338.808L323.848 339.004L307.671 434.305Z" fill="#525252"/>
<path fill-rule="evenodd" clip-rule="evenodd" d="M337.373 434.305L336.172 434.109L352.348 338.808L353.549 339.004L337.373 434.305Z" fill="#525252"/>
<path fill-rule="evenodd" clip-rule="evenodd" d="M319.534 359.758H349.501V358.564H319.534V359.758Z" fill="#525252"/>
<path fill-rule="evenodd" clip-rule="evenodd" d="M317.413 372.483H347.38V371.289H317.413V372.483Z" fill="#525252"/>
<path fill-rule="evenodd" clip-rule="evenodd" d="M315.291 385.207H345.258V384.013H315.291V385.207Z" fill="#525252"/>
<path fill-rule="evenodd" clip-rule="evenodd" d="M313.17 397.93H343.137V396.737H313.17V397.93Z" fill="#525252"/>
<path fill-rule="evenodd" clip-rule="evenodd" d="M311.048 410.655H341.015V409.462H311.048V410.655Z" fill="#525252"/>
<path fill-rule="evenodd" clip-rule="evenodd" d="M308.927 423.379H338.894V422.185H308.927V423.379Z" fill="#525252"/>
<path fill-rule="evenodd" clip-rule="evenodd" d="M320.824 341.003H357.372V337.425H320.824V341.003Z" fill="black"/>
<path fill-rule="evenodd" clip-rule="evenodd" d="M453.992 481.024L451.514 456.068L448.328 429.378L450.806 429.032L456.47 454.334L465.319 455.027L474.522 429.378L477 429.726L470.274 457.107L470.628 480.33L453.992 481.024Z" fill="#FFCA00"/>
<path fill-rule="evenodd" clip-rule="evenodd" d="M457.141 446.929C456.472 449.321 457.527 453.158 459.97 453.813C462.412 454.467 465.318 451.692 465.987 449.3C466.656 446.908 465.218 444.438 462.775 443.783C460.332 443.128 457.81 444.537 457.141 446.929" fill="#FFD0D4"/>
<path fill-rule="evenodd" clip-rule="evenodd" d="M460.407 445.548C459.907 445.415 459.208 445.077 458.941 444.618C458.915 444.575 458.906 444.533 458.89 444.491C459.975 443.724 461.382 443.411 462.774 443.784C465.218 444.438 466.655 446.909 465.986 449.301C465.509 451.008 463.89 452.905 462.115 453.616C462.148 453.133 462.267 452.656 462.392 452.187C462.899 450.295 463.463 448.42 464.083 446.562C462.832 446.318 461.602 445.978 460.407 445.548" fill="black"/>
<path fill-rule="evenodd" clip-rule="evenodd" d="M463.261 449.205C463.591 448.969 464.045 448.86 464.422 449.019C464.508 449.056 464.591 449.106 464.658 449.173C464.841 449.35 464.894 449.622 464.871 449.874C464.809 450.568 464.227 451.15 463.547 451.357C463.355 451.415 463.15 451.447 462.95 451.418C462.75 451.388 462.555 451.291 462.44 451.129C462.013 450.531 462.784 449.544 463.261 449.205" fill="#FFD0D4"/>
<path fill-rule="evenodd" clip-rule="evenodd" d="M470.629 480.331L468.171 518.608H465.468L463.172 480.642L460.756 480.742L459.281 519.544L457.194 519.497L453.992 481.024L453.521 476.283L470.569 476.501L470.629 480.331Z" fill="white"/>
<path fill-rule="evenodd" clip-rule="evenodd" d="M468.172 518.607L474.118 519.25L473.903 520.153H465.196L465.467 518.607H468.172Z" fill="#250F8A"/>
<path fill-rule="evenodd" clip-rule="evenodd" d="M459.28 519.544V520.632L451.112 520.935V519.933L457.193 519.497L459.28 519.544Z" fill="#250F8A"/>
<path fill-rule="evenodd" clip-rule="evenodd" d="M452.221 427.992C452.221 429.141 451.271 430.072 450.098 430.072C448.925 430.072 447.975 429.141 447.975 427.992C447.975 426.844 448.925 425.913 450.098 425.913C451.271 425.913 452.221 426.844 452.221 427.992" fill="#FFD0D4"/>
<path fill-rule="evenodd" clip-rule="evenodd" d="M476.999 428.685C476.999 429.834 476.049 430.764 474.876 430.764C473.703 430.764 472.753 429.834 472.753 428.685C472.753 427.536 473.703 426.606 474.876 426.606C476.049 426.606 476.999 427.536 476.999 428.685" fill="#FFD0D4"/>
<path fill-rule="evenodd" clip-rule="evenodd" d="M230.021 406.295L227.543 381.339L224.357 354.65L226.835 354.303L232.499 379.606L241.347 380.299L250.551 354.65L253.029 354.997L246.303 382.378L246.657 405.602L230.021 406.295Z" fill="#2D109F"/>
<path fill-rule="evenodd" clip-rule="evenodd" d="M228.25 353.263C228.25 354.412 227.3 355.343 226.127 355.343C224.954 355.343 224.003 354.412 224.003 353.263C224.003 352.115 224.954 351.184 226.127 351.184C227.3 351.184 228.25 352.115 228.25 353.263" fill="#FFD0D4"/>
<path fill-rule="evenodd" clip-rule="evenodd" d="M253.028 353.957C253.028 355.105 252.078 356.036 250.905 356.036C249.732 356.036 248.781 355.105 248.781 353.957C248.781 352.808 249.732 351.877 250.905 351.877C252.078 351.877 253.028 352.808 253.028 353.957" fill="#FFD0D4"/>
<path fill-rule="evenodd" clip-rule="evenodd" d="M241.009 376.55C241.028 376.524 241.049 376.496 241.067 376.47C241.205 376.278 241.332 376.082 241.446 375.884C241.462 375.859 241.473 375.833 241.489 375.808C241.583 375.64 241.667 375.471 241.742 375.302C241.765 375.251 241.787 375.201 241.809 375.15C241.89 374.956 241.961 374.763 242.015 374.571C242.182 373.973 242.218 373.371 242.139 372.792C242.087 372.413 241.97 372.052 241.825 371.704C241.531 370.998 241.071 370.363 240.456 369.88C240.316 369.77 240.155 369.682 240 369.588C239.889 369.52 239.788 369.44 239.67 369.382C239.398 369.247 239.108 369.136 238.804 369.055H238.801C238.469 368.965 238.136 368.921 237.806 368.907C237.734 368.903 237.663 368.914 237.59 368.914C237.322 368.914 237.058 368.931 236.798 368.976C236.747 368.985 236.697 369 236.647 369.012C236.36 369.07 236.083 369.156 235.814 369.268L235.759 369.292C234.537 369.817 233.549 370.84 233.169 372.2C232.502 374.591 233.557 378.429 235.999 379.084C237.133 379.388 238.365 378.948 239.429 378.154C239.43 378.153 239.432 378.152 239.434 378.151C239.836 377.85 240.213 377.499 240.552 377.118C240.565 377.102 240.577 377.087 240.591 377.071C240.738 376.903 240.877 376.728 241.009 376.55" fill="black"/>
<path fill-rule="evenodd" clip-rule="evenodd" d="M246.657 405.602L244.201 443.879H241.496L239.2 405.912L236.785 406.013L235.309 444.815L233.222 444.768L230.02 406.295L229.55 401.554L246.598 401.773L246.657 405.602Z" fill="#FFCA00"/>
<path fill-rule="evenodd" clip-rule="evenodd" d="M244.201 443.879L250.146 444.521L249.932 445.423H241.224L241.497 443.879H244.201Z" fill="#2D109F"/>
<path fill-rule="evenodd" clip-rule="evenodd" d="M235.308 444.816V445.903L227.141 446.206V445.205L233.223 444.768L235.308 444.816Z" fill="#2D109F"/>
<path fill-rule="evenodd" clip-rule="evenodd" d="M411.321 428.148H513.653V368.501H411.321V428.148Z" fill="white"/>
<path fill-rule="evenodd" clip-rule="evenodd" d="M462.529 420.322H508.181V376.037H462.529V420.322Z" fill="#250F8A"/>
<path fill-rule="evenodd" clip-rule="evenodd" d="M417.115 380.216H456.983V376.456H417.115V380.216Z" fill="#250F8A"/>
<path fill-rule="evenodd" clip-rule="evenodd" d="M417.115 389.406H456.983V385.647H417.115V389.406Z" fill="#250F8A"/>
<path fill-rule="evenodd" clip-rule="evenodd" d="M417.115 398.598H456.983V394.838H417.115V398.598Z" fill="#250F8A"/>
<path fill-rule="evenodd" clip-rule="evenodd" d="M417.115 407.789H456.983V404.029H417.115V407.789Z" fill="#250F8A"/>
<path fill-rule="evenodd" clip-rule="evenodd" d="M417.115 416.979H456.983V413.22H417.115V416.979Z" fill="#250F8A"/>
<path fill-rule="evenodd" clip-rule="evenodd" d="M337.75 261.491C338.204 261.844 338.689 262.194 339.245 262.329C339.242 262.477 339.222 262.62 339.233 262.771C339.446 265.536 342.027 269.191 344.851 268.983C345.055 268.969 345.252 268.93 345.447 268.877V268.876C346.212 268.671 346.9 268.19 347.483 267.549C347.501 267.529 347.52 267.512 347.538 267.492C347.63 267.387 347.719 267.277 347.806 267.165C347.834 267.128 347.864 267.093 347.891 267.056C347.97 266.951 348.043 266.842 348.116 266.732C348.15 266.682 348.183 266.632 348.216 266.581C348.282 266.476 348.344 266.37 348.405 266.262C348.44 266.2 348.476 266.138 348.508 266.076C348.563 265.972 348.616 265.867 348.666 265.761C348.7 265.69 348.734 265.617 348.767 265.544C348.811 265.444 348.853 265.343 348.895 265.241C348.928 265.159 348.958 265.076 348.988 264.994C349.024 264.898 349.058 264.801 349.09 264.703C349.119 264.612 349.146 264.523 349.171 264.432C349.197 264.34 349.224 264.25 349.248 264.157C349.272 264.059 349.293 263.962 349.313 263.864C349.331 263.779 349.35 263.694 349.366 263.608C349.384 263.503 349.398 263.399 349.411 263.294C349.422 263.218 349.434 263.14 349.443 263.064C349.454 262.947 349.459 262.833 349.465 262.719C349.467 262.657 349.473 262.593 349.475 262.532C349.476 262.462 349.472 262.396 349.47 262.328C349.847 262.49 350.262 262.584 350.699 262.584C352.381 262.584 353.745 261.25 353.745 259.602C353.745 257.955 352.381 256.62 350.699 256.62C349.338 256.62 348.199 257.5 347.809 258.707C347.768 258.669 347.734 258.624 347.692 258.588C347.443 258.378 347.173 258.192 346.888 258.032C346.316 257.713 345.678 257.498 345.001 257.413C344.664 257.37 344.316 257.361 343.964 257.387C341.918 257.537 340.257 258.851 339.569 260.609C339.151 260.566 338.733 260.524 338.312 260.515C337.917 260.506 337.38 260.653 337.414 261.04C337.431 261.231 337.598 261.371 337.75 261.491" fill="#E5FDFD"/>
<path fill-rule="evenodd" clip-rule="evenodd" d="M321.926 259.377L324.412 261.859C323.495 261.207 322.636 260.573 321.868 259.989L321.926 259.377ZM389.612 301.448L373.275 302.175L362.05 284.251L362.287 284.098L349.573 270.726L346.793 270.432L329.838 262.212L323.732 256.775L321.996 258.636L325.526 221.234L274.705 216.634C274.901 216.183 275.009 215.687 275.009 215.165C275.009 213.296 273.611 211.757 271.783 211.47V136.035H270.565V211.47C268.738 211.757 267.339 213.296 267.339 215.165C267.339 215.445 267.374 215.714 267.434 215.977L223.521 212.003L218.662 263.476L320.667 272.707L321.468 264.239C324.874 267.344 329.279 270.861 331.522 271.815L339.805 275.338L349.342 291.971L349.278 292.01L349.43 292.128L349.524 292.291L349.591 292.25L349.898 292.485L352.575 315.062L355.823 334.943L349.731 335.739L350.21 337.412H359.096L358.236 314.956L359.744 300.018L370.801 308.477L388.942 304.406L390.699 308.91L392.12 308.314L389.612 301.448Z" fill="#E5FDFD"/>
<path fill-rule="evenodd" clip-rule="evenodd" d="M194.295 263.477L296.3 272.707L301.16 221.234L199.153 212.003L194.295 263.477Z" fill="#02ECF1"/>
<path fill-rule="evenodd" clip-rule="evenodd" d="M299.366 256.774L305.471 262.213L325.596 271.969L316.743 274.173L303.421 265.227L297.238 259.055L299.366 256.774Z" fill="#FF7E6E"/>
<path fill-rule="evenodd" clip-rule="evenodd" d="M325.094 262.019C325.306 264.784 323.31 268.777 320.485 268.983C317.661 269.192 315.078 265.536 314.866 262.771C314.654 260.005 316.771 257.594 319.596 257.387C322.42 257.179 324.882 259.254 325.094 262.019" fill="#FFD0D4"/>
<path fill-rule="evenodd" clip-rule="evenodd" d="M295.062 255.763C295.039 255.766 294.19 255.335 294.19 255.335L293.369 256.653L289.2 254.363L287.816 255.872L293.696 260.221L294.978 258.647L294.31 257.757L294.583 256.782L295.062 255.763Z" fill="#FFD0D4"/>
<path fill-rule="evenodd" clip-rule="evenodd" d="M336.448 289.414L333.868 314.956L334.728 337.412H325.842L325.365 335.738L331.456 334.944L328.207 315.061L325.277 290.336L336.448 289.414Z" fill="#250F8A"/>
<path fill-rule="evenodd" clip-rule="evenodd" d="M295.058 258.001C297.641 260.365 306.865 266.887 310.259 267.859L317.364 269.896L325.207 270.726L337.919 284.099L325.158 292.292L315.437 275.338L307.156 271.815C303.751 270.367 295.357 263.012 293.049 260.165L295.058 258.001Z" fill="#FA7564"/>
<path fill-rule="evenodd" clip-rule="evenodd" d="M315.595 260.639C315.048 260.569 314.497 260.527 313.945 260.515C313.549 260.507 313.012 260.653 313.047 261.04C313.064 261.231 313.23 261.372 313.384 261.491C313.896 261.89 314.446 262.304 315.096 262.383C315.645 262.45 316.22 262.251 316.603 261.862C316.949 261.512 317.192 260.987 317.005 260.542C316.541 260.68 316.078 260.702 315.595 260.639" fill="#FFD0D4"/>
<path fill-rule="evenodd" clip-rule="evenodd" d="M123.898 399.564H145.015C145.498 399.564 145.937 399.284 146.132 398.848C146.325 398.414 146.238 397.908 145.909 397.56L125.604 376.088L123.817 377.709L142.226 397.178H123.898V399.564Z" fill="#250F8A"/>
<path fill-rule="evenodd" clip-rule="evenodd" d="M321.08 268.877C323.584 268.203 325.291 264.585 325.095 262.019C324.883 259.254 322.42 257.179 319.597 257.387C319.426 257.399 319.268 257.445 319.103 257.473C318.989 257.882 318.95 258.315 319.021 258.672C319.3 260.063 320.346 261.337 321.659 261.933C321.659 261.933 321.65 268.068 321.08 268.877" fill="#FA7564"/>
<path fill-rule="evenodd" clip-rule="evenodd" d="M322.35 262.495C322.776 262.493 323.192 262.654 323.533 262.903C324.633 263.704 323.962 265.397 322.83 265.803C322.465 265.936 322.069 265.969 321.679 265.952C321.342 265.938 320.988 265.879 320.728 265.669C320.477 265.465 320.348 265.141 320.329 264.822C320.312 264.503 320.396 264.186 320.51 263.886C320.77 263.204 321.581 262.499 322.35 262.495" fill="#FFD0D4"/>
<path fill-rule="evenodd" clip-rule="evenodd" d="M365.245 301.449L348.91 302.175L337.525 283.999L324.911 292.01L346.435 308.477L364.574 304.406L366.332 308.91L367.754 308.314L365.245 301.449Z" fill="#472BC7"/>
<path fill-rule="evenodd" clip-rule="evenodd" d="M329.378 259.602C329.378 261.25 328.015 262.584 326.332 262.584C324.65 262.584 323.287 261.25 323.287 259.602C323.287 257.956 324.65 256.62 326.332 256.62C328.015 256.62 329.378 257.956 329.378 259.602" fill="#FA7564"/>
<path fill-rule="evenodd" clip-rule="evenodd" d="M125.247 406.833H144.21V155.522H125.247V406.833ZM122.81 409.219H146.647V153.136H122.81V409.219Z" fill="#250F8A"/>
<path fill-rule="evenodd" clip-rule="evenodd" d="M119.547 417.968H149.909V396.664H119.547V417.968Z" fill="#472BC7"/>
<path fill-rule="evenodd" clip-rule="evenodd" d="M123.898 311.395H145.015C145.498 311.395 145.937 311.115 146.132 310.679C146.325 310.245 146.238 309.739 145.909 309.391L125.604 287.919L123.817 289.539L142.226 309.009H123.898V311.395Z" fill="#250F8A"/>
<path fill-rule="evenodd" clip-rule="evenodd" d="M123.898 333.437H145.015C145.498 333.437 145.937 333.156 146.132 332.721C146.325 332.287 146.238 331.781 145.909 331.433L125.604 309.961L123.817 311.582L142.226 331.051H123.898V333.437Z" fill="#250F8A"/>
<path fill-rule="evenodd" clip-rule="evenodd" d="M123.898 355.479H145.015C145.498 355.479 145.937 355.199 146.132 354.763C146.325 354.329 146.238 353.823 145.909 353.475L125.604 332.004L123.817 333.625L142.226 353.093H123.898V355.479Z" fill="#250F8A"/>
<path fill-rule="evenodd" clip-rule="evenodd" d="M123.898 377.522H145.015C145.498 377.522 145.937 377.241 146.132 376.806C146.325 376.372 146.238 375.866 145.909 375.518L125.604 354.046L123.817 355.667L142.226 375.136H123.898V377.522Z" fill="#250F8A"/>
<path fill-rule="evenodd" clip-rule="evenodd" d="M123.898 289.882H145.015C145.498 289.882 145.937 289.601 146.132 289.166C146.325 288.732 146.238 288.226 145.909 287.879L125.604 266.406L123.817 268.026L142.226 287.496H123.898V289.882Z" fill="#250F8A"/>
<path fill-rule="evenodd" clip-rule="evenodd" d="M123.898 268.368H145.015C145.498 268.368 145.937 268.088 146.132 267.652C146.325 267.218 146.238 266.712 145.909 266.365L125.604 244.893L123.817 246.513L142.226 265.982H123.898V268.368Z" fill="#250F8A"/>
<path fill-rule="evenodd" clip-rule="evenodd" d="M123.898 246.855H145.015C145.498 246.855 145.937 246.575 146.132 246.14C146.325 245.705 146.238 245.2 145.909 244.852L125.604 223.38L123.817 225L142.226 244.47H123.898V246.855Z" fill="#250F8A"/>
<path fill-rule="evenodd" clip-rule="evenodd" d="M123.898 225.342H145.015C145.498 225.342 145.937 225.061 146.132 224.626C146.325 224.192 146.238 223.686 145.909 223.339L125.604 201.866L123.817 203.486L142.226 222.956H123.898V225.342Z" fill="#250F8A"/>
<path fill-rule="evenodd" clip-rule="evenodd" d="M123.898 203.829H145.015C145.498 203.829 145.937 203.548 146.132 203.113C146.325 202.679 146.238 202.173 145.909 201.826L125.604 180.353L123.817 181.973L142.226 201.443H123.898V203.829Z" fill="#250F8A"/>
<path fill-rule="evenodd" clip-rule="evenodd" d="M123.898 182.315H145.015C145.498 182.315 145.937 182.035 146.132 181.6C146.325 181.165 146.238 180.66 145.909 180.312L125.604 158.84L123.817 160.46L142.226 179.93H123.898V182.315Z" fill="#250F8A"/>
<path fill-rule="evenodd" clip-rule="evenodd" d="M123.898 160.802H145.015C145.498 160.802 145.937 160.522 146.132 160.086C146.325 159.652 146.238 159.146 145.909 158.799L125.604 137.327L123.817 138.947L142.226 158.416H123.898V160.802Z" fill="#0089C7"/>
<path fill-rule="evenodd" clip-rule="evenodd" d="M122.851 161.23H161.493V129.33H122.851V161.23Z" fill="#472BC7"/>
<path fill-rule="evenodd" clip-rule="evenodd" d="M64.7808 147.654H103.423V129.33H64.7808V147.654Z" fill="#472BC7"/>
<path fill-rule="evenodd" clip-rule="evenodd" d="M65.4218 131.661H256.283C256.956 131.661 257.502 131.126 257.502 130.468C257.502 129.809 256.956 129.275 256.283 129.275H65.4218C64.7493 129.275 64.2036 129.809 64.2036 130.468C64.2036 131.126 64.7493 131.661 65.4218 131.661" fill="#250F8A"/>
<path fill-rule="evenodd" clip-rule="evenodd" d="M246.198 213.576H247.417V136.036H246.198V213.576Z" fill="#472BC7"/>
<path fill-rule="evenodd" clip-rule="evenodd" d="M109.191 423.534H160.266V414.16H109.191V423.534Z" fill="#250F8A"/>
<path fill-rule="evenodd" clip-rule="evenodd" d="M142.03 131.349C142.186 131.349 142.341 131.29 142.461 131.174L152.637 121.209H245.939L255.506 130.578C255.745 130.811 256.13 130.811 256.368 130.578C256.606 130.344 256.606 129.967 256.368 129.733L246.443 120.016H152.133L141.598 130.33C141.361 130.564 141.361 130.941 141.598 131.174C141.718 131.29 141.874 131.349 142.03 131.349" fill="#250F8A"/>
<path fill-rule="evenodd" clip-rule="evenodd" d="M64.6087 131.348C64.828 131.348 65.0399 131.232 65.1484 131.029L75.333 111.978H100.032L109.609 130.426C109.761 130.719 110.129 130.834 110.428 130.688C110.727 130.538 110.848 130.179 110.696 129.885L100.779 110.785H74.596L64.0702 130.475C63.913 130.768 64.0288 131.128 64.3273 131.28C64.4174 131.327 64.5136 131.348 64.6087 131.348" fill="#250F8A"/>
<path fill-rule="evenodd" clip-rule="evenodd" d="M242.341 136.035C242.341 138.451 244.341 140.41 246.808 140.41C249.274 140.41 251.274 138.451 251.274 136.035C251.274 133.62 249.274 131.661 246.808 131.661C244.341 131.661 242.341 133.62 242.341 136.035" fill="#472BC7"/>
<path fill-rule="evenodd" clip-rule="evenodd" d="M220.396 121.199C220.657 121.199 220.9 121.033 220.979 120.777C221.077 120.462 220.896 120.128 220.574 120.032L130.383 93.1035C130.245 93.0641 130.098 93.0701 129.967 93.125L87.2208 110.791C86.9102 110.919 86.7652 111.268 86.8956 111.572C87.0271 111.876 87.3841 112.018 87.6935 111.89L130.238 94.3083L220.219 121.173C220.278 121.191 220.338 121.199 220.396 121.199" fill="#250F8A"/>
<path fill-rule="evenodd" clip-rule="evenodd" d="M144.394 131.429C144.538 131.429 144.684 131.404 144.827 131.35C145.457 131.116 145.772 130.428 145.533 129.811L131.331 93.2197C131.14 92.7235 130.639 92.4109 130.093 92.4551C129.552 92.498 129.105 92.8869 128.998 93.4082L121.657 129.096C121.524 129.741 121.951 130.371 122.611 130.501C123.268 130.627 123.913 130.212 124.046 129.567L130.554 97.9306L143.255 130.66C143.44 131.136 143.903 131.429 144.394 131.429" fill="#250F8A"/>
<path fill-rule="evenodd" clip-rule="evenodd" d="M127.738 93.6428C127.738 94.9705 128.837 96.0465 130.192 96.0465C131.548 96.0465 132.647 94.9705 132.647 93.6428C132.647 92.315 131.548 91.239 130.192 91.239C128.837 91.239 127.738 92.315 127.738 93.6428" fill="#472BC7"/>
<path fill-rule="evenodd" clip-rule="evenodd" d="M233.238 131.462C233.372 131.462 233.507 131.419 233.621 131.33L245.583 121.862V130.714C245.583 131.043 245.856 131.311 246.192 131.311C246.529 131.311 246.801 131.043 246.801 130.714V120.613C246.801 120.382 246.666 120.174 246.455 120.075C246.244 119.974 245.992 120.003 245.809 120.149L232.854 130.402C232.593 130.609 232.552 130.985 232.764 131.24C232.884 131.387 233.06 131.462 233.238 131.462" fill="#250F8A"/>
<path fill-rule="evenodd" clip-rule="evenodd" d="M221.67 131.462C221.804 131.462 221.939 131.419 222.053 131.33L234.016 121.862V130.714C234.016 131.043 234.288 131.311 234.625 131.311C234.961 131.311 235.234 131.043 235.234 130.714V120.613C235.234 120.382 235.099 120.174 234.887 120.075C234.677 119.974 234.425 120.003 234.241 120.149L221.286 130.402C221.024 130.609 220.984 130.985 221.196 131.24C221.316 131.387 221.492 131.462 221.67 131.462" fill="#250F8A"/>
<path fill-rule="evenodd" clip-rule="evenodd" d="M210.102 131.462C210.236 131.462 210.371 131.419 210.484 131.33L222.448 121.862V130.714C222.448 131.043 222.719 131.311 223.057 131.311C223.393 131.311 223.666 131.043 223.666 130.714V120.613C223.666 120.382 223.531 120.174 223.319 120.075C223.109 119.974 222.857 120.003 222.673 120.149L209.718 130.402C209.456 130.609 209.416 130.985 209.628 131.24C209.747 131.387 209.924 131.462 210.102 131.462" fill="#250F8A"/>
<path fill-rule="evenodd" clip-rule="evenodd" d="M198.534 131.462C198.668 131.462 198.804 131.419 198.917 131.33L210.879 121.862V130.714C210.879 131.043 211.152 131.311 211.488 131.311C211.826 131.311 212.097 131.043 212.097 130.714V120.613C212.097 120.382 211.962 120.174 211.751 120.075C211.541 119.974 211.29 120.003 211.106 120.149L198.151 130.402C197.889 130.609 197.848 130.985 198.06 131.24C198.18 131.387 198.356 131.462 198.534 131.462" fill="#250F8A"/>
<path fill-rule="evenodd" clip-rule="evenodd" d="M186.966 131.462C187.1 131.462 187.235 131.419 187.349 131.33L199.312 121.862V130.714C199.312 131.043 199.584 131.311 199.921 131.311C200.257 131.311 200.53 131.043 200.53 130.714V120.613C200.53 120.382 200.395 120.174 200.183 120.075C199.972 119.974 199.721 120.003 199.537 120.149L186.582 130.402C186.321 130.609 186.28 130.985 186.492 131.24C186.612 131.387 186.788 131.462 186.966 131.462" fill="#250F8A"/>
<path fill-rule="evenodd" clip-rule="evenodd" d="M175.398 131.462C175.532 131.462 175.667 131.419 175.781 131.33L187.744 121.862V130.714C187.744 131.043 188.016 131.311 188.353 131.311C188.689 131.311 188.962 131.043 188.962 130.714V120.613C188.962 120.382 188.827 120.174 188.615 120.075C188.405 119.974 188.153 120.003 187.969 120.149L175.014 130.402C174.752 130.609 174.712 130.985 174.924 131.24C175.044 131.387 175.22 131.462 175.398 131.462" fill="#250F8A"/>
<path fill-rule="evenodd" clip-rule="evenodd" d="M163.831 131.462C163.965 131.462 164.1 131.419 164.213 131.33L176.176 121.862V130.714C176.176 131.043 176.448 131.311 176.786 131.311C177.122 131.311 177.395 131.043 177.395 130.714V120.613C177.395 120.382 177.259 120.174 177.047 120.075C176.838 119.974 176.586 120.003 176.402 120.149L163.447 130.402C163.185 130.609 163.145 130.985 163.357 131.24C163.476 131.387 163.653 131.462 163.831 131.462" fill="#250F8A"/>
<path fill-rule="evenodd" clip-rule="evenodd" d="M152.262 131.462C152.396 131.462 152.532 131.419 152.645 131.33L164.608 121.862V130.714C164.608 131.043 164.88 131.311 165.217 131.311C165.554 131.311 165.826 131.043 165.826 130.714V120.613C165.826 120.382 165.691 120.174 165.479 120.075C165.268 119.974 165.016 120.003 164.834 120.149L151.879 130.402C151.617 130.609 151.576 130.985 151.788 131.24C151.908 131.387 152.084 131.462 152.262 131.462" fill="#250F8A"/>
<path fill-rule="evenodd" clip-rule="evenodd" d="M83.8754 131.462C84.0484 131.462 84.2202 131.391 84.3408 131.251L99.8773 113.297V130.714C99.8773 131.044 100.15 131.311 100.486 131.311C100.824 131.311 101.096 131.044 101.096 130.714V111.671C101.096 111.42 100.936 111.196 100.697 111.11C100.456 111.023 100.188 111.093 100.022 111.284L83.4113 130.481C83.1932 130.731 83.2261 131.108 83.4819 131.32C83.5965 131.416 83.7366 131.462 83.8754 131.462" fill="#250F8A"/>
<path fill-rule="evenodd" clip-rule="evenodd" d="M71.926 131.462C72.1234 131.462 72.3171 131.368 72.434 131.195L84.2731 113.655V130.714C84.2731 131.044 84.5448 131.311 84.8822 131.311C85.2185 131.311 85.4914 131.044 85.4914 130.714V111.671C85.4914 111.407 85.3147 111.174 85.0577 111.099C84.797 111.025 84.5216 111.122 84.3742 111.341L71.418 130.537C71.2328 130.812 71.3108 131.182 71.591 131.363C71.6946 131.43 71.8103 131.462 71.926 131.462" fill="#250F8A"/>
<path fill-rule="evenodd" clip-rule="evenodd" d="M242.972 215.166C242.972 217.241 244.69 218.922 246.807 218.922C248.925 218.922 250.643 217.241 250.643 215.166C250.643 213.092 248.925 211.411 246.807 211.411C244.69 211.411 242.972 213.092 242.972 215.166" fill="#472BC7"/>
<path fill-rule="evenodd" clip-rule="evenodd" d="M559.474 310.486L558.496 297.261L560.006 287.527L565.136 258.842L562.658 258.495L556.996 283.797L548.146 284.49L538.942 258.842L536.464 259.188L543.191 286.571L545.55 297.037L545.274 309.793L559.474 310.486Z" fill="white"/>
<path fill-rule="evenodd" clip-rule="evenodd" d="M547.101 277.196C547.101 279.676 549.153 283.105 551.686 283.105C554.219 283.105 556.271 279.676 556.271 277.196C556.271 274.716 554.219 272.706 551.686 272.706C549.153 272.706 547.101 274.716 547.101 277.196" fill="#FFD0D4"/>
<path fill-rule="evenodd" clip-rule="evenodd" d="M553.617 277.809C553.873 277.495 554.28 277.275 554.687 277.329C554.78 277.343 554.873 277.37 554.956 277.415C555.18 277.541 555.305 277.79 555.352 278.038C555.478 278.723 555.074 279.436 554.473 279.811C554.303 279.917 554.115 280 553.914 280.024C553.713 280.047 553.5 280.004 553.344 279.878C552.771 279.412 553.249 278.26 553.617 277.809" fill="#FFD0D4"/>
<path fill-rule="evenodd" clip-rule="evenodd" d="M553.613 277.56C553.717 277.608 553.837 277.655 553.943 277.613C554.051 277.573 554.107 277.461 554.177 277.371C554.453 277.019 555.057 277.019 555.377 277.332C555.699 277.644 555.731 278.177 555.509 278.563C555.286 278.949 554.851 279.19 554.403 279.255C554.108 280.284 553.987 281.36 554.045 282.428C554.774 282.48 555.504 282.533 556.233 282.585C556.375 282.596 556.531 282.602 556.643 282.517C556.748 282.436 556.786 282.299 556.814 282.171C557.087 280.947 557.222 279.694 557.219 278.44C557.217 277.218 557.068 275.953 556.425 274.906C555.654 273.655 552.492 271.595 550.949 272.75C549.251 274.023 552.436 277.006 553.613 277.56" fill="black"/>
<path fill-rule="evenodd" clip-rule="evenodd" d="M549.745 275.73C549.052 276.757 548.053 277.639 546.836 277.95C546.485 276.619 546.79 275.136 547.64 274.042C548.119 273.426 549.849 271.923 550.77 272.276C551.723 272.643 550.215 275.034 549.745 275.73" fill="black"/>
<path fill-rule="evenodd" clip-rule="evenodd" d="M558.956 301.106L545.419 300.485L535.004 346.161L530.172 343.28L536.054 350.276L549.922 312.627L549.711 329.702L559.113 341.901L559.714 346.304L559.963 348.176L561.639 347.982L561.943 341.271L554.666 329.682L559.801 310.499L558.956 301.106Z" fill="#250F8A"/>
<path fill-rule="evenodd" clip-rule="evenodd" d="M559.812 271.217L562.743 272.224L565.137 258.842L562.659 258.495L559.812 271.217Z" fill="#FFD0D4"/>
<path fill-rule="evenodd" clip-rule="evenodd" d="M542.743 269.432L539.307 270.76L536.465 259.189L538.943 258.842L542.743 269.432Z" fill="#FFD0D4"/>
<path fill-rule="evenodd" clip-rule="evenodd" d="M554.227 284.015L551.686 288.432L550.407 284.313L554.227 284.015Z" fill="#FFD0D4"/>
<path fill-rule="evenodd" clip-rule="evenodd" d="M535.356 257.455C535.356 258.604 536.307 259.535 537.481 259.535C538.654 259.535 539.604 258.604 539.604 257.455C539.604 256.306 538.654 255.376 537.481 255.376C536.307 255.376 535.356 256.306 535.356 257.455" fill="#FFD0D4"/>
<path fill-rule="evenodd" clip-rule="evenodd" d="M562.019 257.844C562.019 258.992 562.969 259.924 564.142 259.924C565.315 259.924 566.266 258.992 566.266 257.844C566.266 256.696 565.315 255.764 564.142 255.764C562.969 255.764 562.019 256.696 562.019 257.844" fill="#FFD0D4"/>
<path fill-rule="evenodd" clip-rule="evenodd" d="M406.002 171.579H341.999C339.799 171.579 338 169.791 338 167.606V164.794C338 162.609 339.799 160.821 341.999 160.821H406.002C408.202 160.821 410 162.609 410 164.794V167.606C410 169.791 408.202 171.579 406.002 171.579" fill="white"/>
<path fill-rule="evenodd" clip-rule="evenodd" d="M81.3818 477.276L81.3331 480.855L227.512 482.759L259.179 467.069L259.227 463.491L81.3818 477.276Z" fill="#FFCA00"/>
<path fill-rule="evenodd" clip-rule="evenodd" d="M227.512 482.759L81.3327 480.855L113 465.167L259.18 467.071L227.512 482.759Z" fill="#FFCA00"/>
<path fill-rule="evenodd" clip-rule="evenodd" d="M227.56 479.18L81.3822 477.276L113.049 461.588L259.228 463.492L227.56 479.18Z" fill="white"/>
<path fill-rule="evenodd" clip-rule="evenodd" d="M193.607 465.394L113.286 464.348L115.681 463.161L196.001 464.207L193.607 465.394Z" fill="#FA7564"/>
<path fill-rule="evenodd" clip-rule="evenodd" d="M187.621 468.358L107.299 467.313L109.694 466.126L190.016 467.172L187.621 468.358Z" fill="#FA7564"/>
<path fill-rule="evenodd" clip-rule="evenodd" d="M181.874 471.206L101.552 470.161L103.947 468.974L184.269 470.02L181.874 471.206Z" fill="#FA7564"/>
<path fill-rule="evenodd" clip-rule="evenodd" d="M176.366 473.935L96.0452 472.889L98.4403 471.702L178.762 472.748L176.366 473.935Z" fill="#FA7564"/>
<path fill-rule="evenodd" clip-rule="evenodd" d="M227.452 476.913L175.502 476.238L199.685 464.255L251.637 464.931L227.452 476.913Z" fill="#FA7564"/>
<path fill-rule="evenodd" clip-rule="evenodd" d="M106.23 512.236L106.181 515.814L252.359 517.718L284.026 502.029L284.075 498.45L106.23 512.236Z" fill="#2D109F"/>
<path fill-rule="evenodd" clip-rule="evenodd" d="M252.359 517.718L106.181 515.814L137.847 500.126L284.027 502.03L252.359 517.718Z" fill="#2D109F"/>
<path fill-rule="evenodd" clip-rule="evenodd" d="M252.408 514.139L106.23 512.235L137.896 496.547L284.076 498.451L252.408 514.139Z" fill="white"/>
<path fill-rule="evenodd" clip-rule="evenodd" d="M218.455 500.352L138.133 499.307L140.527 498.12L220.849 499.166L218.455 500.352Z" fill="#FA7564"/>
<path fill-rule="evenodd" clip-rule="evenodd" d="M212.468 503.318L132.147 502.273L134.542 501.086L214.862 502.132L212.468 503.318Z" fill="#FA7564"/>
<path fill-rule="evenodd" clip-rule="evenodd" d="M206.721 506.165L126.4 505.12L128.795 503.933L209.116 504.979L206.721 506.165Z" fill="#FA7564"/>
<path fill-rule="evenodd" clip-rule="evenodd" d="M201.214 508.894L120.893 507.848L123.288 506.661L203.608 507.707L201.214 508.894Z" fill="#FA7564"/>
<path fill-rule="evenodd" clip-rule="evenodd" d="M252.3 511.872L200.348 511.197L224.533 499.214L276.485 499.89L252.3 511.872Z" fill="#FA7564"/>
<path fill-rule="evenodd" clip-rule="evenodd" d="M335.877 200.155H427.247V190.612H335.877V200.155Z" fill="#E5FDFD"/>
<path fill-rule="evenodd" clip-rule="evenodd" d="M335.877 248.604H427.247V208.506H335.877V248.604Z" fill="#E5FDFD"/>
<path fill-rule="evenodd" clip-rule="evenodd" d="M315.415 459.588L319.619 466.029L323.708 478.373L336.092 497.856L334.199 498.362L319.449 482.211L312.249 468.579L315.415 459.588Z" fill="#E7F8FC"/>
<path fill-rule="evenodd" clip-rule="evenodd" d="M289.928 468.287L274.181 493.991L276.227 494.707L295.241 470.934L289.928 468.287Z" fill="#2D109F"/>
<path fill-rule="evenodd" clip-rule="evenodd" d="M283.126 462.914C285.879 463.369 289.318 466.24 288.866 469.007C288.413 471.774 284.24 473.388 281.487 472.933C278.734 472.479 276.869 469.867 277.322 467.1C277.774 464.333 280.373 462.459 283.126 462.914" fill="#FFD0D4"/>
<path fill-rule="evenodd" clip-rule="evenodd" d="M279.572 471.725C279.377 472.234 279.208 472.755 279.068 473.282C278.969 473.661 278.988 474.213 279.373 474.271C279.564 474.3 279.74 474.173 279.892 474.055C280.402 473.657 280.934 473.226 281.162 472.62C281.353 472.107 281.293 471.508 281.003 471.046C280.741 470.63 280.284 470.272 279.805 470.344C279.833 470.824 279.746 471.274 279.572 471.725" fill="#FFD0D4"/>
<path fill-rule="evenodd" clip-rule="evenodd" d="M288.899 468.408C288.821 465.839 285.68 463.336 283.126 462.913C280.373 462.459 277.774 464.333 277.322 467.099C277.295 467.267 277.302 467.429 277.291 467.595C277.664 467.803 278.078 467.942 278.444 467.959C279.87 468.022 281.357 467.319 282.245 466.199C282.245 466.199 288.241 467.667 288.899 468.408" fill="black"/>
<path fill-rule="evenodd" clip-rule="evenodd" d="M282.955 465.666C283.051 465.256 283.305 464.894 283.628 464.627C284.666 463.76 286.165 464.808 286.301 465.993C286.345 466.377 286.286 466.766 286.179 467.136C286.086 467.456 285.947 467.783 285.68 467.983C285.423 468.177 285.077 468.224 284.761 468.165C284.444 468.106 284.154 467.95 283.887 467.769C283.28 467.356 282.78 466.408 282.955 465.666" fill="#FFD0D4"/>
<path fill-rule="evenodd" clip-rule="evenodd" d="M288.354 481.901L278.691 498.77L280.895 498.94L293.271 486.332L294.966 470.145C294.966 470.145 294.966 465.203 292.762 465.544C290.558 465.886 289.541 468.611 289.541 468.611L288.354 481.901Z" fill="#1E0880"/>
<path fill-rule="evenodd" clip-rule="evenodd" d="M288.622 465.704C298.604 460.738 309.968 459.192 309.968 459.192L315.408 469.881L290.897 473.894L288.622 465.704Z" fill="#1E0880"/>
<path fill-rule="evenodd" clip-rule="evenodd" d="M309.968 459.191L311.491 459.138C315.6 458.996 319.006 462.309 319 466.442L310.899 481.171L312.375 502.348H310.171L305.362 482.351L309.968 459.191Z" fill="white"/>
<path fill-rule="evenodd" clip-rule="evenodd" d="M276.862 496.537C276.862 497.975 275.756 499.14 274.39 499.14C273.026 499.14 271.918 497.975 271.918 496.537C271.918 495.101 273.026 493.935 274.39 493.935C275.756 493.935 276.862 495.101 276.862 496.537" fill="#FFD0D4"/>
<path fill-rule="evenodd" clip-rule="evenodd" d="M282.481 499.143C282.481 500.579 281.375 501.746 280.009 501.746C278.645 501.746 277.537 500.579 277.537 499.143C277.537 497.706 278.645 496.541 280.009 496.541C281.375 496.541 282.481 497.706 282.481 499.143" fill="#FFD0D4"/>
<path fill-rule="evenodd" clip-rule="evenodd" d="M312.376 502.348L312.781 504.451L302.19 504.688C302.19 504.688 302.778 503.15 303.132 503.269C303.485 503.386 310.171 502.348 310.171 502.348H312.376Z" fill="#250F8A"/>
<path fill-rule="evenodd" clip-rule="evenodd" d="M335.014 498.505L336.054 500.859L326.495 501.098L326.73 499.916L333.149 499.016L335.014 498.505Z" fill="#250F8A"/>
<rect opacity="0.5" width="119.345" height="14.753" rx="7.37649" transform="matrix(0.870779 -0.491674 0.508372 0.861138 514 118.768)" fill="url(#paint0_linear)"/>
<rect opacity="0.5" width="119.345" height="14.753" rx="7.37649" transform="matrix(0.870779 -0.491674 0.508372 0.861138 570 401.404)" fill="url(#paint1_linear)"/>
<rect opacity="0.5" width="119.345" height="14.753" rx="7.37649" transform="matrix(0.870779 -0.491674 0.508372 0.861138 364 59.1108)" fill="url(#paint2_linear)"/>
<rect opacity="0.3" width="99.4541" height="20.0223" rx="10.0111" transform="matrix(0.870779 -0.491674 0.508372 0.861138 24 272.311)" fill="url(#paint3_linear)"/>
<rect opacity="0.5" width="99.4541" height="20.0223" rx="10.0111" transform="matrix(0.870779 -0.491674 0.508372 0.861138 0 479.643)" fill="url(#paint4_linear)"/>
<defs>
<linearGradient id="paint0_linear" x1="119.345" y1="0" x2="0" y2="0" gradientUnits="userSpaceOnUse">
<stop stop-color="white" stop-opacity="0.01"/>
<stop offset="1" stop-color="#FFCA00"/>
<stop offset="1" stop-color="white"/>
</linearGradient>
<linearGradient id="paint1_linear" x1="119.345" y1="0" x2="0" y2="0" gradientUnits="userSpaceOnUse">
<stop stop-color="white" stop-opacity="0.01"/>
<stop offset="1" stop-color="#FA7564"/>
<stop offset="1" stop-color="white"/>
</linearGradient>
<linearGradient id="paint2_linear" x1="119.345" y1="0" x2="0" y2="0" gradientUnits="userSpaceOnUse">
<stop stop-color="white" stop-opacity="0.01"/>
<stop offset="1" stop-color="white"/>
<stop offset="1" stop-color="white"/>
</linearGradient>
<linearGradient id="paint3_linear" x1="99.4541" y1="0" x2="0" y2="0" gradientUnits="userSpaceOnUse">
<stop stop-color="white" stop-opacity="0.01"/>
<stop offset="1" stop-color="#06CCE2"/>
<stop offset="1" stop-color="white"/>
</linearGradient>
<linearGradient id="paint4_linear" x1="99.4541" y1="0" x2="0" y2="0" gradientUnits="userSpaceOnUse">
<stop stop-color="white" stop-opacity="0.01"/>
<stop offset="1" stop-color="#FA7564"/>
<stop offset="1" stop-color="white"/>
</linearGradient>
</defs>
</svg>
